<svg id="Group_248" data-name="Group 248" xmlns="http://www.w3.org/2000/svg" width="29.608" height="37.838" viewBox="0 0 29.608 37.838">
  <path id="Path_17" data-name="Path 17" d="M188.591,146.577v37.839c-.454-.331-.862-.622-1.262-.923q-6.6-4.953-13.189-9.915a.458.458,0,0,0-.669-.02q-4.216,3.191-8.451,6.357-2.814,2.111-5.632,4.217c-.116.087-.239.164-.4.277V146.577Zm-3.3,31.25V149.874H162.283v27.941c.166-.116.289-.2.407-.284q5.384-4.033,10.762-8.074a.463.463,0,0,1,.672-.016q4.367,3.3,8.752,6.572Z" transform="translate(-158.983 -146.577)"/>
</svg>
